<?xml version="1.0" encoding="UTF-8"?>
<!-- 2020-11-03 17:21:18 Generated by QCAD SVG Exporter -->
<svg width="306.2000260770762mm" height="236.2000319842778mm" viewBox="-7.816e-13 -445.400015558687 306.2000260770762 236.2000319842778" version="1.1" xmlns="http://www.w3.org/2000/svg" style="stroke-linecap:round;stroke-linejoin:round;fill:none">
    <g transform="scale(1,-1)">
        <!-- Polyligne -->
        <path d="M66.54998888038135,445.400015558687 L10.00000000000014,445.400015558687" style="stroke:#ff0000;stroke-width:0.09;"/>
        <!-- Arc -->
        <path d="M10.000000000000146,445.400015558687 A10,10 0 0,1 -7.815970093361102e-13,435.4000155586869 " style="stroke:#ff0000;stroke-width:0.09;"/>
        <!-- Polyligne -->
        <path d="M-7.816e-13,435.4000155586868 L0,381.349990737996 L3.099999443669502,381.349990737996 L3.099999443669502,328.6750038370243 L11.75000471928472,328.6750038370243 L11.75000471928472,329.9250013051342 L13.99998610761126,329.9250013051342 L13.99998610761126,328.6750038370243 L16.25000277371531,328.6750038370243 L16.25000277371531,325.9249952960718 L13.99998610761126,325.9249952960718 L13.99998610761126,324.6749978279618 L11.75000471928472,324.6749978279618 L11.75000471928472,325.9249952960718 L3.099999443669502,325.9249952960718 L3.099999443669502,273.2499827510344 L0,273.2499827510344 L0,219.1999835744092" style="stroke:#ff0000;stroke-width:0.09;"/>
        <!-- Arc -->
        <path d="M0,219.1999835744092 A10,10 0 0,1 9.999999999983425,209.1999835744092 " style="stroke:#ff0000;stroke-width:0.09;"/>
        <!-- Polyligne -->
        <path d="M9.999999999983427,209.1999835744092 L66.5499888803804,209.1999835744092" style="stroke:#ff0000;stroke-width:0.09;"/>
        <!-- Arc -->
        <path d="M66.5499888803804,209.1999835744092 A10,10 0 0,1 76.54998888038038,219.1999835744092 " style="stroke:#ff0000;stroke-width:0.09;"/>
        <!-- Polyligne -->
        <path d="M76.54998888038038,219.1999835744092 L76.54998888038041,222.2999829397661 L151.724991129173,222.2999829397661 L151.724991129173,230.9499879968638 L150.4749936610631,230.9499879968638 L150.4749936610631,233.2000046061278 L151.724991129173,233.2000046061278 L151.724991129173,235.4499859376149 L154.4749996701256,235.4499859376149 L154.4749996701256,233.2000046061278 L155.7249971382354,233.2000046061278 L155.7249971382354,230.9499879968638 L154.4749996701256,230.9499879968638 L154.4749996701256,222.2999829397661 L229.6500019189181,222.2999829397661 L229.6500019189182,219.1999835744092" style="stroke:#ff0000;stroke-width:0.09;"/>
        <!-- Arc -->
        <path d="M229.6500019189182,219.19998357440923 A10,10 0 0,1 239.65000191891903,209.1999835744092 " style="stroke:#ff0000;stroke-width:0.09;"/>
        <!-- Polyligne -->
        <path d="M239.650001918919,209.1999835744092 L296.2000084381878,209.1999835744092" style="stroke:#ff0000;stroke-width:0.09;"/>
        <!-- Arc -->
        <path d="M296.2000084381878,209.1999835744092 A10,10 0 0,1 306.2000084381878,219.1999835744092 " style="stroke:#ff0000;stroke-width:0.09;"/>
        <!-- Polyligne -->
        <path d="M306.2000084381878,219.1999835744092 L306.2000260770754,273.2499827510344 L303.0999914339417,273.2499827510344 L303.0999914339417,325.9249952960718 L294.4500216546208,325.9249952960718 L294.4500216546208,324.6749978279618 L292.2000050453568,324.6749978279618 L292.2000050453568,325.9249952960718 L289.9500237138697,325.9249952960718 L289.9500237138697,328.6750038370243 L292.2000050453568,328.6750038370243 L292.2000050453568,329.9250013051342 L294.4500216546208,329.9250013051342 L294.4500216546208,328.6750038370243 L303.0999914339417,328.6750038370243 L303.0999914339417,381.349990737996 L306.2000260770754,381.349990737996 L306.200008438187,435.400003419363 L306.2000084381344,435.4000331975541" style="stroke:#ff0000;stroke-width:0.09;"/>
        <!-- Arc -->
        <path d="M306.20000843813443,435.4000331975541 A10,10 0 0,1 296.20000843814904,445.400015558687 " style="stroke:#ff0000;stroke-width:0.09;"/>
        <!-- Polyligne -->
        <path d="M296.200008438149,445.400015558687 L239.6500019189185,445.400015558687" style="stroke:#ff0000;stroke-width:0.09;"/>
        <!-- Arc -->
        <path d="M239.6500019189185,445.400015558687 A10,10 0 0,1 229.6500019189185,435.400015558687 " style="stroke:#ff0000;stroke-width:0.09;"/>
        <!-- Polyligne -->
        <path d="M229.6500019189185,435.400015558687 L229.6500019189181,432.3000040148498 L154.4749996701256,432.2999918363695 L154.4749996701256,423.6499865607543 L155.7249971382354,423.6499865607543 L155.7249971382354,421.4000051724277 L154.4749996701256,421.4000051724277 L154.4749996701256,419.1499885063237 L151.724991129173,419.1499885063237 L151.724991129173,421.4000051724277 L150.4749936610631,421.4000051724277 L150.4749936610631,423.6499865607543 L151.724991129173,423.6499865607543 L151.724991129173,432.2999918363695 L76.54998888038041,432.3000161933301" style="stroke:#ff0000;stroke-width:0.09;"/>
        <!-- Polyligne -->
        <path d="M76.54998888038041,432.3000161933301 L76.54998888038041,435.400015558687" style="stroke:#ff0000;stroke-width:0.09;"/>
        <!-- Arc -->
        <path d="M76.54998888038041,435.400015558687 A10,10 0 0,1 66.54998888038135,445.400015558687 " style="stroke:#ff0000;stroke-width:0.09;"/>
        <!-- Spline -->
        <path d="M62.18113869140477,249.0491166044045 C62.18113869140477,246.0115173348344 59.71871458755977,243.5490932309894 56.68115831916315,243.5490932309894 C53.64359918699333,243.5490932309894 51.18113980537145,246.0115173348344 51.18113980537145,249.0491166044045 C51.18113980537145,252.0866680131778 53.64359918699333,254.5490921170228 56.68115831916315,254.5490921170228 C59.71871458755977,254.5490921170228 62.18113869140477,252.0866680131778 62.18113869140477,249.0491166044045" style="stroke:#000000;stroke-width:0.35;"/>
        <!-- Spline -->
        <path d="M62.18113869140477,279.0490848253092 C62.18113869140477,276.011527125026 59.71871458755977,273.549103021181 56.68115831916315,273.549103021181 C53.64359918699333,273.549103021181 51.18113980537145,276.011527125026 51.18113980537145,279.0490848253092 C51.18113980537145,282.0866778033693 53.64359918699333,284.5491019072143 56.68115831916315,284.5491019072143 C59.71871458755977,284.5491019072143 62.18113869140477,282.0866778033693 62.18113869140477,279.0490848253092" style="stroke:#000000;stroke-width:0.35;"/>
        <!-- Spline -->
        <path d="M62.18113869140477,339.0491044056923 C62.18113869140477,336.011546705409 59.71871458755977,333.5490873237872 56.68115831916315,333.5490873237872 C53.64359918699333,333.5490873237872 51.18113980537145,336.011546705409 51.18113980537145,339.0491044056923 C51.18113980537145,342.0866621059755 53.64359918699333,344.5490862098205 56.68115831916315,344.5490862098205 C59.71871458755977,344.5490862098205 62.18113869140477,342.0866621059755 62.18113869140477,339.0491044056923" style="stroke:#000000;stroke-width:0.35;"/>
        <!-- Spline -->
        <path d="M62.18113869140477,369.0490882410712 C62.18113869140477,366.0115304640527 59.71871458755977,363.5491062980017 56.68115831916315,363.5491062980017 C53.64359918699333,363.5491062980017 51.18113980537145,366.0115304640527 51.18113980537145,369.0490882410712 C51.18113980537145,372.0866812958673 53.64359918699333,374.5491054619183 56.68115831916315,374.5491054619183 C59.71871458755977,374.5491054619183 62.18113869140477,372.0866812958673 62.18113869140477,369.0490882410712" style="stroke:#000000;stroke-width:0.35;"/>
        <!-- Spline -->
        <path d="M62.18113869140477,399.0490987891267 C62.18113869140477,396.0115410121084 59.71871458755977,393.5491168460571 56.68115831916315,393.5491168460571 C53.64359918699333,393.5491168460571 51.18113980537145,396.0115410121084 51.18113980537145,399.0490987891267 C51.18113980537145,402.0866565661449 53.64359918699333,404.5491160099737 56.68115831916315,404.5491160099737 C59.71871458755977,404.5491160099737 62.18113869140477,402.0866565661449 62.18113869140477,399.0490987891267" style="stroke:#000000;stroke-width:0.35;"/>
        <!-- Spline -->
        <path d="M96.68114642234735,387.5491076808906 C98.6141569285877,387.5491076808906 100.1811604997212,385.982104070171 100.1811604997212,384.0490935150989 C100.1811604997212,382.1161182378044 98.6141569285877,380.5491146270851 96.68114642234735,380.5491146270851 C94.748135916107,380.5491146270851 93.18113234497349,382.1161182378044 93.18113234497349,384.0490935150989 C93.18113234497349,385.982104070171 94.748135916107,387.5491076808906 96.68114642234735,387.5491076808906" style="stroke:#000000;stroke-width:0.35;"/>
        <!-- Spline -->
        <path d="M96.68114642234735,357.5490971328348 C98.6141569285877,357.5490971328348 100.1811604997212,355.9820935221155 100.1811604997212,354.049118244821 C100.1811604997212,352.1160987945477 98.6141569285877,350.5490952234142 96.68114642234735,350.5490952234142 C94.748135916107,350.5490952234142 93.18113234497349,352.1160987945477 93.18113234497349,354.049118244821 C93.18113234497349,355.9820935221155 94.748135916107,357.5490971328348 96.68114642234735,357.5490971328348" style="stroke:#000000;stroke-width:0.35;"/>
    </g>
</svg>
