<?xml version="1.0" encoding="UTF-8"?>
<!-- 2020-11-03 17:46:32 Generated by QCAD SVG Exporter -->
<svg width="313.71334778369055mm" height="228.37712929268992mm" viewBox="7085.639540466607 2283.838955323511 313.71334778369055 228.37712929268992" version="1.1" xmlns="http://www.w3.org/2000/svg" style="stroke-linecap:round;stroke-linejoin:round;fill:none">
    <g transform="scale(1,-1)">
        <!-- Polyligne -->
        <path d="M7116.13698654665,-2498.072748488402 L7118.551548081119,-2502.717617308465" style="stroke:#000000;stroke-width:0;"/>
        <!-- Spline -->
        <path d="M7118.551548081119,-2502.717617308465 C7119.575854541974,-2504.688065803684 7121.088677770068,-2506.1545667963037 7123.090017765397,-2507.117120286325" style="stroke:#000000;stroke-width:0;"/>
        <!-- Polyligne -->
        <path d="M7123.090017765397,-2507.117120286325 L7131.633886568828,-2511.226332491276 L7133.047695469102,-2511.623348550163" style="stroke:#000000;stroke-width:0;"/>
        <!-- Spline -->
        <path d="M7133.047695469102,-2511.623348550163 C7139.466098747292,-2513.425720266275 7143.576486244434,-2511.1177044852343 7145.378857960528,-2504.699301207041" style="stroke:#000000;stroke-width:0;"/>
        <!-- Spline -->
        <path d="M7145.378857960528,-2504.699301207041 C7147.050154464606,-2498.747668219957 7148.721450968682,-2492.7960352328737 7150.392747472757,-2486.84440224579" style="stroke:#000000;stroke-width:0;"/>
        <!-- Spline -->
        <path d="M7150.392747472757,-2486.84440224579 C7151.105490825855,-2484.3062608440355 7150.853879251154,-2481.867618605427 7149.637912748651,-2479.528475529965" style="stroke:#000000;stroke-width:0;"/>
        <!-- Polyligne -->
        <path d="M7149.637912748651,-2479.528475529965 L7147.872908934132,-2476.133154653566" style="stroke:#000000;stroke-width:0;"/>
        <!-- Arc -->
        <path d="M7147.872908934132,-2476.133154653566 A5,5 0 0,1 7140.41649850117,-2474.4544368456995 " style="stroke:#000000;stroke-width:0;"/>
        <!-- Polyligne -->
        <path d="M7140.41649850117,-2474.454436845699 L7117.553346306877,-2491.781661538885" style="stroke:#000000;stroke-width:0;"/>
        <!-- Arc -->
        <path d="M7117.553346306877,-2491.7816615388856 A5,5 0 0,1 7116.13698654665,-2498.072748488401 " style="stroke:#000000;stroke-width:0;"/>
        <!-- Spline -->
        <path d="M7137.809705832914,-2489.229555263203 C7138.387612567439,-2488.0279723139365 7139.2773574093335,-2487.7161342065647 7140.478940358599,-2488.294040941088 C7141.680523307867,-2488.871947675613 7141.9923614152385,-2489.7616925175084 7141.414454680715,-2490.963275466775 C7140.836547946191,-2492.1648584160416 7139.946803104296,-2492.4766965234135 7138.745220155028,-2491.89878978889 C7137.543637205762,-2491.320883054366 7137.23179909839,-2490.43113821247 7137.809705832914,-2489.229555263203" style="stroke:#000000;stroke-width:0;"/>
        <!-- Polyligne -->
        <path d="M7094.11361532611,-2502.444445180899 L7090.294509749372,-2498.864033702722" style="stroke:#000000;stroke-width:0;"/>
        <!-- Spline -->
        <path d="M7090.294509749372,-2498.864033702722 C7088.674366936241,-2497.3451498154154 7087.671478189135,-2495.492186393829 7087.285843508051,-2493.305143437962" style="stroke:#000000;stroke-width:0;"/>
        <!-- Polyligne -->
        <path d="M7087.285843508051,-2493.305143437962 L7085.63954046661,-2483.96849492946 L7085.639540466607,-2482.500000000116" style="stroke:#000000;stroke-width:0;"/>
        <!-- Spline -->
        <path d="M7085.639540466607,-2482.500000000116 C7085.639540466603,-2475.833333333445 7088.972873799936,-2472.500000000115 7095.639540466607,-2472.500000000127" style="stroke:#000000;stroke-width:0;"/>
        <!-- Spline -->
        <path d="M7095.639540466607,-2472.500000000127 C7101.821382200062,-2472.5000000001237 7108.003223933516,-2472.50000000012 7114.18506566697,-2472.500000000117" style="stroke:#000000;stroke-width:0;"/>
        <!-- Spline -->
        <path d="M7114.18506566697,-2472.500000000117 C7116.821382200069,-2472.5000000001123 7119.101185963006,-2473.4015426529822 7121.024476955783,-2475.204627958727" style="stroke:#000000;stroke-width:0;"/>
        <!-- Polyligne -->
        <path d="M7121.024476955783,-2475.204627958727 L7123.816178809204,-2477.821848446302" style="stroke:#000000;stroke-width:0;"/>
        <!-- Arc -->
        <path d="M7123.816178809204,-2477.8218484463023 A5,5 0 0,0 7123.416498501171,-2485.4544368456986 " style="stroke:#000000;stroke-width:0;"/>
        <!-- Polyligne -->
        <path d="M7123.416498501171,-2485.454436845699 L7100.553346306878,-2502.781661538885" style="stroke:#000000;stroke-width:0;"/>
        <!-- Arc -->
        <path d="M7100.553346306878,-2502.7816615388856 A5,5 0 0,0 7094.1136153261095,-2502.4444451809 " style="stroke:#000000;stroke-width:0;"/>
        <!-- Spline -->
        <path d="M7108.486836821944,-2483.969615506149 C7109.799913825961,-2483.738084602593 7110.340686876191,-2482.965780648807 7110.109155972636,-2481.652703644792 C7109.87762506908,-2480.339626640775 7109.105321115294,-2479.7988535905447 7107.792244111277,-2480.030384494101 C7106.47916710726,-2480.261915397656 7105.938394057031,-2481.0342193514425 7106.169924960586,-2482.34729635546 C7106.401455864143,-2483.660373359475 7107.173759817928,-2484.201146409705 7108.486836821944,-2483.969615506149" style="stroke:#000000;stroke-width:0;"/>
        <!-- Spline -->
        <path d="M7342.898413450668,-2475.250000000085 C7280.143661970542,-2475.2500000000746 7217.3889104904165,-2475.250000000063 7154.634159010291,-2475.250000000052" style="stroke:#000000;stroke-width:0;"/>
        <!-- Spline -->
        <path d="M7154.634159010291,-2475.250000000052 C7149.040161469107,-2475.250000000052 7145.757468959066,-2472.4954939256063 7144.786081480169,-2466.986481776716" style="stroke:#000000;stroke-width:0;"/>
        <!-- Polyligne -->
        <path d="M7144.786081480169,-2466.986481776716 L7142.848868319872,-2456 L7163.458772570245,-2456.000000000005 L7163.458772570245,-2459.000000000005 L7168.458772570245,-2459 L7168.458772570245,-2456 L7173.458772570245,-2456 L7173.458772570245,-2459 L7178.458772570244,-2459 L7178.458772570244,-2456.000000000001 L7340.249092929035,-2456.000000000005 L7340.249092929035,-2459.000000000005 L7345.249092929035,-2459 L7345.249092929035,-2456.000000000005 L7350.249092929035,-2456 L7350.249092929035,-2459 L7355.249092929034,-2459 L7355.249092929035,-2456.000000000006 L7378.331746783957,-2456.000000000006" style="stroke:#000000;stroke-width:0;"/>
        <!-- Spline -->
        <path d="M7378.331746783957,-2456.000000000006 C7380.96806331705,-2456.000000000002 7383.247867079986,-2456.9015426528695 7385.171158072762,-2458.704627958608" style="stroke:#000000;stroke-width:0;"/>
        <!-- Spline -->
        <path d="M7385.171158072762,-2458.704627958608 C7388.346745037689,-2461.681740738221 7391.522332002615,-2464.6588535178344 7394.697918967542,-2467.635966297448" style="stroke:#000000;stroke-width:0;"/>
        <!-- Spline -->
        <path d="M7394.697918967542,-2467.635966297448 C7396.318061780666,-2469.154850184746 7397.32095052777,-2471.007813606322 7397.706585208856,-2473.194856562176" style="stroke:#000000;stroke-width:0;"/>
        <!-- Polyligne -->
        <path d="M7397.706585208856,-2473.194856562176 L7399.352888250298,-2482.531505070685 L7399.352888250298,-2484.000000000018" style="stroke:#000000;stroke-width:0;"/>
        <!-- Spline -->
        <path d="M7399.352888250298,-2484.000000000018 C7399.3528882503015,-2490.666666666693 7396.019554916966,-2494.0000000000277 7389.352888250292,-2494.000000000023" style="stroke:#000000;stroke-width:0;"/>
        <!-- Spline -->
        <path d="M7389.352888250292,-2494.000000000023 C7383.171046516837,-2494.0000000000177 7376.989204783383,-2494.0000000000123 7370.807363049928,-2494.000000000006" style="stroke:#000000;stroke-width:0;"/>
        <!-- Spline -->
        <path d="M7370.807363049928,-2494.000000000006 C7368.1710465168435,-2493.9999999999986 7365.891242753908,-2493.0984573471374 7363.967951761126,-2491.295372041421" style="stroke:#000000;stroke-width:0;"/>
        <!-- Spline -->
        <path d="M7363.967951761126,-2491.295372041421 C7359.22457608724,-2486.8484573471633 7354.4812004133555,-2482.4015426529054 7349.737824739469,-2477.954627958647" style="stroke:#000000;stroke-width:0;"/>
        <!-- Spline -->
        <path d="M7349.737824739469,-2477.954627958647 C7347.814533746692,-2476.1515426529168 7345.534729983759,-2475.250000000063 7342.898413450668,-2475.250000000085" style="stroke:#000000;stroke-width:0;"/>
        <!-- Spline -->
        <path d="M7376.505591894964,-2482.530384493992 C7377.818668898981,-2482.298853590437 7378.590972852766,-2482.839626640667 7378.822503756322,-2484.152703644683 C7379.054034659879,-2485.465780648699 7378.513261609649,-2486.238084602485 7377.200184605632,-2486.46961550604 C7375.887107601615,-2486.701146409597 7375.114803647829,-2486.1603733593674 7374.883272744273,-2484.84729635535 C7374.651741840719,-2483.5342193513347 7375.192514890948,-2482.761915397549 7376.505591894964,-2482.530384493992" style="stroke:#000000;stroke-width:0;"/>
        <!-- Spline -->
        <path d="M7087.285843508051,-2450.194856562158 C7087.671478189135,-2448.007813606291 7088.674366936241,-2446.1548501847046 7090.294509749372,-2444.635966297398" style="stroke:#000000;stroke-width:0;"/>
        <!-- Spline -->
        <path d="M7090.294509749372,-2444.635966297398 C7094.892318936523,-2440.32552018446 7099.4901281236735,-2436.015074071522 7104.087937310824,-2431.704627958584" style="stroke:#000000;stroke-width:0;"/>
        <!-- Spline -->
        <path d="M7104.087937310824,-2431.704627958584 C7106.011228303604,-2429.9015426528576 7108.29103206654,-2428.9999999999986 7110.927348599627,-2429.000000000007" style="stroke:#000000;stroke-width:0;"/>
        <!-- Polyligne -->
        <path d="M7110.927348599627,-2429.000000000007 L7129.743335787874,-2429.000000000006 L7129.743335787874,-2432 L7134.743335787874,-2432 L7134.743335787874,-2429.000000000006 L7139.743335787874,-2429.000000000006 L7139.743335787874,-2432 L7144.743335787874,-2432 L7144.743335787874,-2429.000000000005 L7306.533656146667,-2429.000000000001 L7306.533656146667,-2432 L7311.533656146666,-2432 L7311.533656146666,-2429 L7316.533656146666,-2429.000000000001 L7316.533656146666,-2432 L7321.533656146666,-2432.000000000005 L7321.533656146666,-2429.000000000005 L7342.848868319872,-2429 L7340.206347236744,-2443.98648177671" style="stroke:#000000;stroke-width:0;"/>
        <!-- Spline -->
        <path d="M7340.206347236744,-2443.98648177671 C7339.234959757842,-2449.495493925598 7335.952267247801,-2452.250000000044 7330.358269706617,-2452.250000000048" style="stroke:#000000;stroke-width:0;"/>
        <!-- Spline -->
        <path d="M7330.358269706617,-2452.250000000048 C7267.60351822649,-2452.250000000054 7204.848766746366,-2452.25000000006 7142.094015266241,-2452.250000000066" style="stroke:#000000;stroke-width:0;"/>
        <!-- Spline -->
        <path d="M7142.094015266241,-2452.250000000065 C7139.45769873315,-2452.250000000042 7137.1778949702175,-2453.1515426528954 7135.25460397744,-2454.954627958626" style="stroke:#000000;stroke-width:0;"/>
        <!-- Spline -->
        <path d="M7135.25460397744,-2454.954627958626 C7130.511228303553,-2459.401542652882 7125.767852629669,-2463.848457347138 7121.024476955783,-2468.295372041393" style="stroke:#000000;stroke-width:0;"/>
        <!-- Spline -->
        <path d="M7121.024476955783,-2468.295372041393 C7119.101185963006,-2470.098457347138 7116.821382200069,-2471.0000000000077 7114.18506566697,-2471.000000000003" style="stroke:#000000;stroke-width:0;"/>
        <!-- Spline -->
        <path d="M7114.18506566697,-2471.000000000003 C7108.003223933516,-2471 7101.821382200062,-2470.9999999999964 7095.639540466607,-2470.999999999993" style="stroke:#000000;stroke-width:0;"/>
        <!-- Spline -->
        <path d="M7095.639540466607,-2470.999999999993 C7088.972873799936,-2471.000000000005 7085.639540466603,-2467.666666666675 7085.639540466607,-2461.000000000004" style="stroke:#000000;stroke-width:0;"/>
        <!-- Polyligne -->
        <path d="M7085.639540466607,-2461.000000000004 L7085.63954046661,-2459.53150507066 L7087.285843508051,-2450.194856562158" style="stroke:#000000;stroke-width:0;"/>
        <!-- Spline -->
        <path d="M7108.486836821944,-2459.530384493971 C7109.799913825961,-2459.761915397527 7110.340686876191,-2460.534219351313 7110.109155972636,-2461.847296355328 C7109.87762506908,-2463.160373359345 7109.105321115294,-2463.7011464095754 7107.792244111277,-2463.469615506019 C7106.47916710726,-2463.238084602463 7105.938394057031,-2462.465780648677 7106.169924960586,-2461.152703644661 C7106.401455864143,-2459.839626640645 7107.173759817928,-2459.2988535904146 7108.486836821944,-2459.530384493971" style="stroke:#000000;stroke-width:0;"/>
        <!-- Spline -->
        <path d="M7342.898413450668,-2381.250000000035 C7280.143661970542,-2381.2500000000455 7217.3889104904165,-2381.250000000057 7154.634159010291,-2381.250000000068" style="stroke:#000000;stroke-width:0;"/>
        <!-- Spline -->
        <path d="M7154.634159010291,-2381.250000000068 C7149.040161469107,-2381.250000000068 7145.757468959066,-2384.0045060745138 7144.786081480169,-2389.513518223404" style="stroke:#000000;stroke-width:0;"/>
        <!-- Polyligne -->
        <path d="M7144.786081480169,-2389.513518223404 L7142.848868319872,-2400.50000000012 L7163.458772570245,-2400.500000000115 L7163.458772570245,-2397.500000000115 L7168.458772570245,-2397.50000000012 L7168.458772570245,-2400.50000000012 L7173.458772570245,-2400.50000000012 L7173.458772570245,-2397.50000000012 L7178.458772570244,-2397.50000000012 L7178.458772570244,-2400.500000000119 L7340.249092929035,-2400.500000000115 L7340.249092929035,-2397.500000000115 L7345.249092929035,-2397.50000000012 L7345.249092929035,-2400.500000000115 L7350.249092929035,-2400.50000000012 L7350.249092929035,-2397.50000000012 L7355.249092929034,-2397.50000000012 L7355.249092929035,-2400.500000000114 L7378.331746783957,-2400.500000000114" style="stroke:#000000;stroke-width:0;"/>
        <!-- Spline -->
        <path d="M7378.331746783957,-2400.500000000114 C7380.96806331705,-2400.5000000001187 7383.247867079986,-2399.598457347251 7385.171158072762,-2397.795372041512" style="stroke:#000000;stroke-width:0;"/>
        <!-- Spline -->
        <path d="M7385.171158072762,-2397.795372041512 C7388.346745037689,-2394.818259261899 7391.522332002615,-2391.8411464822852 7394.697918967542,-2388.864033702672" style="stroke:#000000;stroke-width:0;"/>
        <!-- Spline -->
        <path d="M7394.697918967542,-2388.864033702672 C7396.318061780666,-2387.345149815374 7397.32095052777,-2385.492186393798 7397.706585208856,-2383.305143437944" style="stroke:#000000;stroke-width:0;"/>
        <!-- Polyligne -->
        <path d="M7397.706585208856,-2383.305143437944 L7399.352888250298,-2373.968494929435 L7399.352888250298,-2372.500000000102" style="stroke:#000000;stroke-width:0;"/>
        <!-- Spline -->
        <path d="M7399.352888250298,-2372.500000000102 C7399.3528882503015,-2365.833333333427 7396.019554916966,-2362.5000000000923 7389.352888250292,-2362.500000000097" style="stroke:#000000;stroke-width:0;"/>
        <!-- Spline -->
        <path d="M7389.352888250292,-2362.500000000097 C7383.171046516837,-2362.5000000001032 7376.989204783383,-2362.5000000001087 7370.807363049928,-2362.500000000114" style="stroke:#000000;stroke-width:0;"/>
        <!-- Spline -->
        <path d="M7370.807363049928,-2362.500000000114 C7368.1710465168435,-2362.5000000001205 7365.891242753908,-2363.4015426529822 7363.967951761126,-2365.204627958699" style="stroke:#000000;stroke-width:0;"/>
        <!-- Spline -->
        <path d="M7363.967951761126,-2365.204627958699 C7359.22457608724,-2369.651542652957 7354.4812004133555,-2374.0984573472147 7349.737824739469,-2378.545372041473" style="stroke:#000000;stroke-width:0;"/>
        <!-- Spline -->
        <path d="M7349.737824739469,-2378.545372041473 C7347.814533746692,-2380.3484573472033 7345.534729983759,-2381.2500000000578 7342.898413450668,-2381.250000000035" style="stroke:#000000;stroke-width:0;"/>
        <!-- Spline -->
        <path d="M7376.505591894964,-2373.969615506128 C7377.818668898981,-2374.201146409683 7378.590972852766,-2373.660373359453 7378.822503756322,-2372.347296355437 C7379.054034659879,-2371.0342193514202 7378.513261609649,-2370.2619153976348 7377.200184605632,-2370.03038449408 C7375.887107601615,-2369.798853590523 7375.114803647829,-2370.3396266407526 7374.883272744273,-2371.65270364477 C7374.651741840719,-2372.9657806487853 7375.192514890948,-2373.7380846025712 7376.505591894964,-2373.969615506128" style="stroke:#000000;stroke-width:0;"/>
        <!-- Spline -->
        <path d="M7087.285843508051,-2406.305143437962 C7087.671478189135,-2408.4921863938293 7088.674366936241,-2410.345149815416 7090.294509749372,-2411.864033702722" style="stroke:#000000;stroke-width:0;"/>
        <!-- Spline -->
        <path d="M7090.294509749372,-2411.864033702722 C7094.892318936523,-2416.17447981566 7099.4901281236735,-2420.484925928598 7104.087937310824,-2424.795372041536" style="stroke:#000000;stroke-width:0;"/>
        <!-- Spline -->
        <path d="M7104.087937310824,-2424.795372041536 C7106.011228303604,-2426.5984573472615 7108.29103206654,-2427.5000000001205 7110.927348599627,-2427.500000000113" style="stroke:#000000;stroke-width:0;"/>
        <!-- Polyligne -->
        <path d="M7110.927348599627,-2427.500000000113 L7129.743335787874,-2427.500000000114 L7129.743335787874,-2424.50000000012 L7134.743335787874,-2424.50000000012 L7134.743335787874,-2427.500000000114 L7139.743335787874,-2427.500000000114 L7139.743335787874,-2424.50000000012 L7144.743335787874,-2424.50000000012 L7144.743335787874,-2427.500000000115 L7306.533656146667,-2427.500000000119 L7306.533656146667,-2424.50000000012 L7311.533656146666,-2424.50000000012 L7311.533656146666,-2427.50000000012 L7316.533656146666,-2427.500000000119 L7316.533656146666,-2424.50000000012 L7321.533656146666,-2424.500000000115 L7321.533656146666,-2427.500000000115 L7342.848868319872,-2427.50000000012 L7340.206347236744,-2412.51351822341" style="stroke:#000000;stroke-width:0;"/>
        <!-- Spline -->
        <path d="M7340.206347236744,-2412.51351822341 C7339.234959757842,-2407.004506074523 7335.952267247801,-2404.250000000077 7330.358269706617,-2404.250000000072" style="stroke:#000000;stroke-width:0;"/>
        <!-- Spline -->
        <path d="M7330.358269706617,-2404.250000000072 C7267.60351822649,-2404.250000000066 7204.848766746366,-2404.25000000006 7142.094015266241,-2404.250000000054" style="stroke:#000000;stroke-width:0;"/>
        <!-- Spline -->
        <path d="M7142.094015266241,-2404.250000000055 C7139.45769873315,-2404.250000000078 7137.1778949702175,-2403.3484573472247 7135.25460397744,-2401.545372041494" style="stroke:#000000;stroke-width:0;"/>
        <!-- Spline -->
        <path d="M7135.25460397744,-2401.545372041494 C7130.511228303553,-2397.098457347238 7125.767852629669,-2392.6515426529822 7121.024476955783,-2388.204627958727" style="stroke:#000000;stroke-width:0;"/>
        <!-- Spline -->
        <path d="M7121.024476955783,-2388.204627958727 C7119.101185963006,-2386.401542652982 7116.821382200069,-2385.5000000001114 7114.18506566697,-2385.500000000117" style="stroke:#000000;stroke-width:0;"/>
        <!-- Spline -->
        <path d="M7114.18506566697,-2385.500000000117 C7108.003223933516,-2385.50000000012 7101.821382200062,-2385.5000000001237 7095.639540466607,-2385.500000000127" style="stroke:#000000;stroke-width:0;"/>
        <!-- Spline -->
        <path d="M7095.639540466607,-2385.500000000127 C7088.972873799936,-2385.500000000115 7085.639540466603,-2388.833333333445 7085.639540466607,-2395.500000000116" style="stroke:#000000;stroke-width:0;"/>
        <!-- Polyligne -->
        <path d="M7085.639540466607,-2395.500000000116 L7085.63954046661,-2396.96849492946 L7087.285843508051,-2406.305143437962" style="stroke:#000000;stroke-width:0;"/>
        <!-- Spline -->
        <path d="M7108.486836821944,-2396.969615506149 C7109.799913825961,-2396.738084602593 7110.340686876191,-2395.965780648807 7110.109155972636,-2394.652703644792 C7109.87762506908,-2393.3396266407744 7109.105321115294,-2392.7988535905442 7107.792244111277,-2393.030384494101 C7106.47916710726,-2393.261915397656 7105.938394057031,-2394.0342193514425 7106.169924960586,-2395.34729635546 C7106.401455864143,-2396.6603733594748 7107.173759817928,-2397.2011464097045 7108.486836821944,-2396.969615506149" style="stroke:#000000;stroke-width:0;"/>
        <!-- Polyligne -->
        <path d="M7117.582291111385,-2315.838955323512 L7117.582291111385,-2310.838955323512 L7234.082291111385,-2310.838955323511 L7350.582291111385,-2310.838955323512 L7350.582291111385,-2315.838955323512 L7347.582291111385,-2315.838955323512 L7347.582291111385,-2320.838955323512 L7350.582291111385,-2320.838955323512 L7350.58229111139,-2325.838955323512 L7347.58229111139,-2325.838955323512 L7347.58229111139,-2330.838955323512 L7234.082291111385,-2330.838955323511 L7120.582291111379,-2330.838955323512 L7120.582291111379,-2325.838955323512 L7117.582291111379,-2325.838955323512 L7117.582291111385,-2320.838955323512 L7120.582291111385,-2320.838955323512 L7120.582291111385,-2315.838955323512 Z" style="stroke:#000000;stroke-width:0;"/>
        <!-- Polyligne -->
        <path d="M7117.582291111385,-2351.344712464673 L7117.582291111385,-2356.344712464672 L7230.082291111385,-2356.344712464672 L7342.582291111385,-2356.344712464672 L7342.582291111385,-2351.344712464673 L7339.582291111385,-2351.344712464673 L7339.582291111385,-2346.344712464673 L7342.582291111385,-2346.344712464673 L7342.58229111139,-2341.344712464673 L7339.58229111139,-2341.344712464673 L7339.58229111139,-2336.344712464673 L7230.082291111385,-2336.344712464672 L7120.582291111379,-2336.344712464673 L7120.582291111379,-2341.344712464673 L7117.582291111379,-2341.344712464673 L7117.582291111385,-2346.344712464673 L7120.582291111385,-2346.344712464673 L7120.582291111385,-2351.344712464673 Z" style="stroke:#000000;stroke-width:0;"/>
        <!-- Polyligne -->
        <path d="M7117.582291111385,-2374.344712464673 L7117.582291111385,-2379.344712464672 L7230.082291111385,-2379.344712464672 L7342.582291111385,-2379.344712464672 L7342.582291111385,-2374.344712464673 L7339.582291111385,-2374.344712464673 L7339.582291111385,-2369.344712464673 L7342.582291111385,-2369.344712464673 L7342.58229111139,-2364.344712464673 L7339.58229111139,-2364.344712464673 L7339.58229111139,-2359.344712464673 L7230.082291111385,-2359.344712464672 L7120.582291111379,-2359.344712464673 L7120.582291111379,-2364.344712464673 L7117.582291111379,-2364.344712464673 L7117.582291111385,-2369.344712464673 L7120.582291111385,-2369.344712464673 L7120.582291111385,-2374.344712464673 Z" style="stroke:#000000;stroke-width:0;"/>
        <!-- Polyligne -->
        <path d="M7117.582291111385,-2288.838955323512 L7117.582291111385,-2283.838955323512 L7234.082291111385,-2283.838955323511 L7350.582291111385,-2283.838955323512 L7350.582291111385,-2288.838955323512 L7347.582291111385,-2288.838955323512 L7347.582291111385,-2293.838955323512 L7350.582291111385,-2293.838955323512 L7350.58229111139,-2298.838955323512 L7347.58229111139,-2298.838955323512 L7347.58229111139,-2303.838955323512 L7234.082291111385,-2303.838955323511 L7120.582291111379,-2303.838955323512 L7120.582291111379,-2298.838955323512 L7117.582291111379,-2298.838955323512 L7117.582291111385,-2293.838955323512 L7120.582291111385,-2293.838955323512 L7120.582291111385,-2288.838955323512 Z" style="stroke:#000000;stroke-width:0;"/>
    </g>
</svg>
