<?xml version="1.0" encoding="UTF-8" standalone="no"?>
<!-- Created with Inkscape (http://www.inkscape.org/) -->

<svg
   xmlns:dc="http://purl.org/dc/elements/1.1/"
   xmlns:cc="http://creativecommons.org/ns#"
   xmlns:rdf="http://www.w3.org/1999/02/22-rdf-syntax-ns#"
   xmlns:svg="http://www.w3.org/2000/svg"
   xmlns="http://www.w3.org/2000/svg"
   xmlns:sodipodi="http://sodipodi.sourceforge.net/DTD/sodipodi-0.dtd"
   xmlns:inkscape="http://www.inkscape.org/namespaces/inkscape"
   width="555.19275mm"
   height="468.1832mm"
   viewBox="0 0 555.19275 468.1832"
   version="1.1"
   id="svg1328"
   inkscape:version="0.92.5 (0.92.5+68)"
   sodipodi:docname="DECOUTE_TOUT_5.svg"
   inkscape:export-filename="/home/laurent/Projets/Fabrikarium2020/medias/wiki/rfm_decoupe.png"
   inkscape:export-xdpi="32.02"
   inkscape:export-ydpi="32.02">
  <defs
     id="defs1322" />
  <sodipodi:namedview
     id="base"
     pagecolor="#ffffff"
     bordercolor="#666666"
     borderopacity="1.0"
     inkscape:pageopacity="0.0"
     inkscape:pageshadow="2"
     inkscape:zoom="0.7"
     inkscape:cx="1422.4486"
     inkscape:cy="954.42582"
     inkscape:document-units="mm"
     inkscape:current-layer="layer1"
     showgrid="false"
     inkscape:snap-page="true"
     inkscape:window-width="3840"
     inkscape:window-height="2094"
     inkscape:window-x="0"
     inkscape:window-y="38"
     inkscape:window-maximized="1"
     inkscape:snap-global="false"
     fit-margin-top="0"
     fit-margin-left="0"
     fit-margin-right="0"
     fit-margin-bottom="0" />
  <metadata
     id="metadata1325">
    <rdf:RDF>
      <cc:Work
         rdf:about="">
        <dc:format>image/svg+xml</dc:format>
        <dc:type
           rdf:resource="http://purl.org/dc/dcmitype/StillImage" />
        <dc:title></dc:title>
      </cc:Work>
    </rdf:RDF>
  </metadata>
  <g
     inkscape:label="Calque 1"
     inkscape:groupmode="layer"
     id="layer1"
     transform="translate(43.441731,163.27617)">
    <path
       style="fill:#e6e6e6;fill-rule:evenodd;stroke:#333333;stroke-width:0.26458332px;stroke-linecap:butt;stroke-linejoin:miter;stroke-opacity:1"
       d="m 224.11811,-163.14369 h -54.0499 v 3.1047 h -52.67399 v 8.6438 h 1.2347 v 2.2578 h -1.2347 v 2.258 h -2.75191 v -2.258 h -1.23489 v -2.2578 h 1.23489 v -8.6438 H 61.968325 v -3.1047 H 7.918315 v 76.558898 h 3.1047 v 75.182997 h 8.64381 v -1.23471 h 2.258 v 1.23471 h 2.25799 v 2.75201 h -2.25799 v 1.2347 h -2.258 v -1.2347 h -8.64381 v 75.18299 h -3.1047 v 76.559025 h 54.05001 v -3.10481 h 52.673985 v -8.6437 h -1.23489 v -2.25801 h 1.23489 v -2.2579 h 2.75191 v 2.2579 h 1.2347 v 2.25801 h -1.2347 v 8.6437 h 52.67399 v 3.10481 h 54.0499 V 66.533205 h -3.1048 v -75.18299 h -8.6437 v 1.2347 h -2.25798 v -1.2347 h -2.25791 v -2.75201 h 2.2932 v -1.23471 h 2.25798 v 1.23471 h 8.64381 v -75.182997 h 3.10462 v -76.558898 z"
       id="path985"
       inkscape:connector-curvature="0" />
    <path
       style="fill:#e6e6e6;fill-rule:evenodd;stroke:#333333;stroke-width:0.26458332px;stroke-linecap:butt;stroke-linejoin:miter;stroke-opacity:1"
       d="m 511.61872,-153.12667 c 0,-5.52282 -4.477,-9.99992 -9.9999,-9.99992 h -54.04991 v 3.09949 h -52.67528 v 8.65021 h 1.25 v 2.24999 h -1.25 v 2.24999 h -2.7497 v -2.24999 h -1.2501 v -2.24999 h 1.2501 v -8.65021 h -52.67541 v -3.09949 h -54.0499 c -5.5229,0 -9.9999,4.4771 -9.9999,9.99992 v 56.549967 c 0,5.52281 4.477,9.9999 9.9999,9.9999 h 3.1001 v 75.174817 h 8.65009 v -1.24952 h 2.25001 v 1.24952 h 2.25 v 2.75019 h -2.25 v 1.2501 h -2.25001 v -1.2501 h -8.65009 v 75.17471 h -3.1001 c -5.5229,0 -9.9999,4.4776 -9.9999,10.00048 V 133.0734 c 0,5.52291 4.477,9.9999 9.9999,9.9999 h 54.0499 v -3.1001 h 52.67541 v -8.6501 h -1.2501 v -2.24999 h 1.2501 v -2.25002 h 2.7497 v 2.25002 h 1.25 v 2.24999 h -1.25 v 8.6501 h 52.67528 v 3.1001 h 54.04991 c 5.5229,0 9.9999,-4.4771 9.9999,-9.9999 V 76.523394 c 0,-5.52288 -4.477,-10.00048 -9.9999,-10.00048 h -3.1 v -75.17471 h -8.6502 v 1.2501 h -2.2499 v -1.2501 h -2.25 v -2.75019 h 2.25 v -1.24952 h 2.2499 v 1.24952 h 8.6502 v -75.174817 h 3.1 c 5.5229,0 9.9999,-4.47709 9.9999,-9.9999 z"
       id="path983"
       inkscape:connector-curvature="0" />
    <path
       style="fill:#ffffff;fill-rule:evenodd;stroke:#ff0000;stroke-width:0.26458332px;stroke-linecap:butt;stroke-linejoin:miter;stroke-opacity:1"
       d="m 470.76806,-106.44605 c 0,-3.0376 -2.46284,-5.49992 -5.50044,-5.49992 -3.0376,0 -5.49993,2.46232 -5.49993,5.49992 0,3.0375 2.46233,5.49992 5.49993,5.49992 3.0376,0 5.50044,-2.46242 5.50044,-5.49992 z m -17,40.00014 c 0,-1.933001 -1.56705,-3.500046 -3.50004,-3.500046 -1.933,0 -3.50005,1.567045 -3.50005,3.500046 0,1.933099 1.56705,3.500562 3.50005,3.500562 1.93299,0 3.50004,-1.567463 3.50004,-3.500562 z m -13.00024,-40.00014 c 0,-3.0376 -2.46232,-5.49992 -5.49992,-5.49992 -3.03761,0 -5.49992,2.46232 -5.49992,5.49992 0,3.0375 2.46231,5.49992 5.49992,5.49992 3.0376,0 5.49992,-2.46242 5.49992,-5.49992 z m -17,40.00014 c 0,-1.933001 -1.56704,-3.500046 -3.50004,-3.500046 -1.933,0 -3.50004,1.567045 -3.50004,3.500046 0,1.933099 1.56704,3.500562 3.50004,3.500562 1.933,0 3.50004,-1.567463 3.50004,-3.500562 z m -12.99972,-40.00014 c 0,-3.0376 -2.46284,-5.49992 -5.50044,-5.49992 -3.0375,0 -5.49992,2.46232 -5.49992,5.49992 0,3.0375 2.46242,5.49992 5.49992,5.49992 3.0376,0 5.50044,-2.46242 5.50044,-5.49992 z m -60.00047,0 c 0,-3.0376 -2.46232,-5.49992 -5.49992,-5.49992 -3.0376,0 -5.49993,2.46232 -5.49993,5.49992 0,3.0375 2.46233,5.49992 5.49993,5.49992 3.0376,0 5.49992,-2.46242 5.49992,-5.49992 z m -29.99972,0 c 0,-3.0376 -2.46232,-5.49992 -5.49992,-5.49992 -3.0376,0 -5.49992,2.46232 -5.49992,5.49992 0,3.0375 2.46232,5.49992 5.49992,5.49992 3.0376,0 5.49992,-2.46242 5.49992,-5.49992 z"
       id="path981"
       inkscape:connector-curvature="0" />
    <path
       style="fill:#e6e6e6;fill-rule:evenodd;stroke:#333333;stroke-width:0.26458332px;stroke-linecap:butt;stroke-linejoin:miter;stroke-opacity:1"
       d="m 511.61873,202.28247 h -54.0499 v -3.10469 h -52.67399 v 2.75189 h -1.37599 -1.37602 v -2.75189 h -52.67389 v 3.10469 h -54.0499 v 9.70222 h 3.1047 v 11.431 h 8.6437 v -1.23481 h 2.258 v 1.23481 h 2.25799 v 2.7518 h -2.25799 v 1.23478 h -2.258 v -1.23478 h -8.6437 v 11.43098 h -3.1047 v 9.70222 h 54.0499 v 3.10459 h 52.67389 v -2.7519 h 1.37602 1.37599 v 2.7519 h 52.67399 v -3.10459 h 54.0499 v -9.70222 h -3.1047 v -11.43098 h -8.6438 v 1.23478 h -2.2579 v -1.23478 h -2.25791 v -2.7518 h 2.25791 v -1.23481 h 2.2579 v 1.23481 h 8.6438 v -11.431 h 3.1047 z"
       id="path891"
       inkscape:connector-curvature="0" />
    <path
       style="fill:#ffffff;fill-rule:evenodd;stroke:#ff0000;stroke-width:0.26458332px;stroke-linecap:butt;stroke-linejoin:miter;stroke-opacity:1"
       d="m 425.00473,214.77178 v 20.00419 h -0.9879 v -20.00419 z"
       id="path921"
       inkscape:connector-curvature="0" />
    <path
       style="fill:#ffffff;fill-rule:evenodd;stroke:#ff0000;stroke-width:0.26458332px;stroke-linecap:butt;stroke-linejoin:miter;stroke-opacity:1"
       d="m 422.00594,214.77178 v 20.00419 h -0.988 v -20.00419 z"
       id="path919"
       inkscape:connector-curvature="0" />
    <path
       style="fill:#ffffff;fill-rule:evenodd;stroke:#ff0000;stroke-width:0.26458332px;stroke-linecap:butt;stroke-linejoin:miter;stroke-opacity:1"
       d="m 419.00702,214.77178 v 20.00419 h -0.98779 v -20.00419 z"
       id="path917"
       inkscape:connector-curvature="0" />
    <path
       style="fill:#ffffff;fill-rule:evenodd;stroke:#ff0000;stroke-width:0.26458332px;stroke-linecap:butt;stroke-linejoin:miter;stroke-opacity:1"
       d="m 416.00824,214.77178 v 20.00419 h -0.9879 v -20.00419 z"
       id="path915"
       inkscape:connector-curvature="0" />
    <path
       style="fill:#ffffff;fill-rule:evenodd;stroke:#ff0000;stroke-width:0.26458332px;stroke-linecap:butt;stroke-linejoin:miter;stroke-opacity:1"
       d="m 413.00934,214.77178 v 20.00419 h -0.98782 v -20.00419 z"
       id="path913"
       inkscape:connector-curvature="0" />
    <path
       style="fill:#ffffff;fill-rule:evenodd;stroke:#ff0000;stroke-width:0.26458332px;stroke-linecap:butt;stroke-linejoin:miter;stroke-opacity:1"
       d="m 410.01042,214.77178 v 20.00419 h -0.98779 v -20.00419 z"
       id="path911"
       inkscape:connector-curvature="0" />
    <path
       style="fill:#ffffff;fill-rule:evenodd;stroke:#ff0000;stroke-width:0.26458332px;stroke-linecap:butt;stroke-linejoin:miter;stroke-opacity:1"
       d="m 407.01174,214.77178 v 20.00419 h -0.9879 v -20.00419 z"
       id="path909"
       inkscape:connector-curvature="0" />
    <path
       style="fill:#ffffff;fill-rule:evenodd;stroke:#ff0000;stroke-width:0.26458332px;stroke-linecap:butt;stroke-linejoin:miter;stroke-opacity:1"
       d="m 383.02073,214.77178 v 20.00419 h -0.98769 v -20.00419 z"
       id="path907"
       inkscape:connector-curvature="0" />
    <path
       style="fill:#ffffff;fill-rule:evenodd;stroke:#ff0000;stroke-width:0.26458332px;stroke-linecap:butt;stroke-linejoin:miter;stroke-opacity:1"
       d="m 386.01962,214.77178 v 20.00419 h -0.98787 v -20.00419 z"
       id="path905"
       inkscape:connector-curvature="0" />
    <path
       style="fill:#ffffff;fill-rule:evenodd;stroke:#ff0000;stroke-width:0.26458332px;stroke-linecap:butt;stroke-linejoin:miter;stroke-opacity:1"
       d="m 389.01844,214.77178 v 20.00419 h -0.98769 v -20.00419 z"
       id="path903"
       inkscape:connector-curvature="0" />
    <path
       style="fill:#ffffff;fill-rule:evenodd;stroke:#ff0000;stroke-width:0.26458332px;stroke-linecap:butt;stroke-linejoin:miter;stroke-opacity:1"
       d="m 392.01733,214.77178 v 20.00419 h -0.98769 v -20.00419 z"
       id="path901"
       inkscape:connector-curvature="0" />
    <path
       style="fill:#ffffff;fill-rule:evenodd;stroke:#ff0000;stroke-width:0.26458332px;stroke-linecap:butt;stroke-linejoin:miter;stroke-opacity:1"
       d="m 395.01622,214.77178 v 20.00419 h -0.9879 v -20.00419 z"
       id="path899"
       inkscape:connector-curvature="0" />
    <path
       style="fill:#ffffff;fill-rule:evenodd;stroke:#ff0000;stroke-width:0.26458332px;stroke-linecap:butt;stroke-linejoin:miter;stroke-opacity:1"
       d="m 398.01514,214.77178 v 20.00419 h -0.9879 v -20.00419 z"
       id="path897"
       inkscape:connector-curvature="0" />
    <path
       style="fill:#ffffff;fill-rule:evenodd;stroke:#ff0000;stroke-width:0.26458332px;stroke-linecap:butt;stroke-linejoin:miter;stroke-opacity:1"
       d="m 401.01403,214.77178 v 20.00419 h -0.988 v -20.00419 z"
       id="path895"
       inkscape:connector-curvature="0" />
    <path
       style="fill:#ffffff;fill-rule:evenodd;stroke:#ff0000;stroke-width:0.26458332px;stroke-linecap:butt;stroke-linejoin:miter;stroke-opacity:1"
       d="m 404.01282,214.77178 v 20.00419 h -0.9879 v -20.00419 z"
       id="path893"
       inkscape:connector-curvature="0" />
    <path
       style="fill:#e6e6e6;fill-rule:evenodd;stroke:#333333;stroke-width:0.26458332px;stroke-linecap:butt;stroke-linejoin:miter;stroke-opacity:1"
       d="m 14.991731,265.26874 c 1.51889,-1.6201 3.3718,-2.623 5.55889,-3.00868 l 9.33661,-1.64632 h 1.4685 c 6.66669,0 9.99999,3.33341 9.99999,10.00001 v 18.54559 c 0,2.63631 -0.90149,4.9161 -2.7046,6.8394 l -2.6172,2.7917 c -2.11869,2.25991 -5.76149,2.0692 -7.63259,-0.3997 l -17.32731,-22.8632 c -1.4717,-1.94199 -1.32929,-4.6621 0.33731,-6.4397 z"
       id="path1324"
       inkscape:connector-curvature="0" />
    <path
       style="fill:#ffffff;fill-rule:evenodd;stroke:#ff0000;stroke-width:0.26458332px;stroke-linecap:butt;stroke-linejoin:miter;stroke-opacity:1"
       d="m 31.855621,285.04775 a 1.9338542,1.9338542 0 0 0 1.9338,-1.93379 1.9338542,1.9338542 0 0 0 -1.9338,-1.93392 1.9338542,1.9338542 0 0 0 -1.93389,1.93392 1.9338542,1.9338542 0 0 0 1.93389,1.93379 z"
       id="path871"
       inkscape:connector-curvature="0" />
    <path
       style="fill:#e6e6e6;fill-rule:evenodd;stroke:#333333;stroke-width:0.26458332px;stroke-linecap:butt;stroke-linejoin:miter;stroke-opacity:1"
       d="m 278.61874,299.77473 v 4.99999 h 116.50001 116.49998 v -4.99999 h -2.99997 v -5.00001 h 2.99997 v -5 h -2.99997 v -5 H 395.11875 281.61874 v 5 h -3 v 5 h 3 v 5.00001 z"
       id="path875"
       inkscape:connector-curvature="0" />
    <path
       style="fill:#e6e6e6;fill-rule:evenodd;stroke:#333333;stroke-width:0.26458332px;stroke-linecap:butt;stroke-linejoin:miter;stroke-opacity:1"
       d="m 278.61874,262.59 v -4.99999 H 395.11875 511.61873 V 262.59 h -2.99997 v 5.00001 h 2.99997 v 5 h -2.99997 V 277.59 H 395.11875 281.61874 v -4.99999 h -3 v -5 h 3 V 262.59 Z"
       id="path873"
       inkscape:connector-curvature="0" />
    <path
       style="fill:#e6e6e6;fill-rule:evenodd;stroke:#333333;stroke-width:0.26458332px;stroke-linecap:butt;stroke-linejoin:miter;stroke-opacity:1"
       d="m -6.61508,218.75592 c 4.5978,-4.31051 9.19559,-8.62089 13.79339,-12.9314 1.92331,-1.80311 4.20309,-2.7046 6.8394,-2.7046 h 18.816 v 3 h 4.99999 v -3 h 5.00002 v 3 h 4.99999 v -3 h 161.7904 v 3 h 4.99999 v -3 h 5.00002 v 3 h 4.99999 v -3 h 21.3152 l -2.6426,14.9865 c -0.97131,5.509 -4.254,8.2635 -9.848,8.2635 H 45.18441 c -2.63631,0 -4.91609,0.90151 -6.8394,2.70459 -4.7434,4.44691 -9.48672,8.89392 -14.23011,13.3408 -1.92329,1.80311 -4.20309,2.7046 -6.8394,2.7046 H -1.2701 c -6.6666,0 -9.99998,-3.33331 -9.99998,-9.99998 v -1.46852 l 1.64629,-9.33659 c 0.38571,-2.1871 1.38859,-4.04 3.00871,-5.5589 z"
       id="path867"
       inkscape:connector-curvature="0" />
    <path
       style="fill:#ffffff;fill-rule:evenodd;stroke:#ff0000;stroke-width:0.26458332px;stroke-linecap:butt;stroke-linejoin:miter;stroke-opacity:1"
       d="m 13.164,235.61991 a 1.9338542,1.9338542 0 0 0 -1.93389,-1.93379 1.9338542,1.9338542 0 0 0 -1.93381,1.93379 1.9338542,1.9338542 0 0 0 1.93381,1.93392 1.9338542,1.9338542 0 0 0 1.93389,-1.93392 z"
       id="path869"
       inkscape:connector-curvature="0" />
    <path
       style="fill:#e6e6e6;fill-rule:evenodd;stroke:#333333;stroke-width:0.26458332px;stroke-linecap:butt;stroke-linejoin:miter;stroke-opacity:1"
       d="m 287.81454,239.92778 c -4.5978,4.31049 -9.19559,8.6209 -13.79339,12.93138 -1.92331,1.80311 -4.20309,2.70463 -6.8394,2.70463 h -18.816 v -3.00001 h -4.99999 v 3.00001 h -5.00002 v -3.00001 h -4.99999 v 3.00001 H 71.57535 v -3.00001 h -4.99999 v 3.00001 h -5.00002 v -3.00001 h -4.99999 v 3.00001 h -21.3152 l 2.6426,-14.98651 c 0.97131,-5.50899 4.254,-8.26352 9.848,-8.26352 h 188.2643 c 2.63631,0 4.91609,-0.90148 6.8394,-2.70459 4.7434,-4.44688 9.48672,-8.89389 14.23011,-13.3408 1.92329,-1.80311 4.20309,-2.7046 6.8394,-2.7046 h 18.5456 c 6.6666,0 9.99998,3.3333 9.99998,10.00001 v 1.46849 l -1.64629,9.33659 c -0.38571,2.18713 -1.38859,4.04 -3.00871,5.55892 z"
       id="path863"
       inkscape:connector-curvature="0" />
    <path
       style="fill:#ffffff;fill-rule:evenodd;stroke:#ff0000;stroke-width:0.26458332px;stroke-linecap:butt;stroke-linejoin:miter;stroke-opacity:1"
       d="m 268.03546,223.06377 a 1.9338542,1.9338542 0 0 0 1.93389,1.93389 1.9338542,1.9338542 0 0 0 1.93381,-1.93389 1.9338542,1.9338542 0 0 0 -1.93381,-1.93379 1.9338542,1.9338542 0 0 0 -1.93389,1.93379 z"
       id="path865"
       inkscape:connector-curvature="0" />
    <path
       style="fill:#e6e6e6;fill-rule:evenodd;stroke:#333333;stroke-width:0.26458332px;stroke-linecap:butt;stroke-linejoin:miter;stroke-opacity:1"
       d="m 509.97242,167.45295 1.6463,9.33659 v 1.46852 c 0,6.66668 -3.3333,9.99998 -10,9.99998 h -18.5455 c -2.6364,0 -4.9162,-0.90149 -6.8394,-2.7046 -4.7434,-4.4469 -9.4868,-8.89389 -14.2302,-13.34079 -1.9233,-1.80311 -4.2031,-2.7046 -6.8394,-2.7046 h -188.2642 c -5.594,0 -8.8767,-2.7545 -9.8481,-8.26349 l -1.9372,-10.98651 h 20.6099 v 3.00001 h 5 v -3.00001 h 5 v 3.00001 h 5 v -3.00001 h 161.7903 v 3.00001 h 5 v -3.00001 h 5 v 3.00001 h 5 v -3.00001 h 23.0826 c 2.6364,0 4.9162,0.90149 6.8395,2.7046 3.1755,2.97709 6.3511,5.95429 9.5267,8.93141 1.6202,1.51889 2.6231,3.37179 3.0087,5.55889 z"
       id="path881"
       inkscape:connector-curvature="0" />
    <path
       style="fill:#ffffff;fill-rule:evenodd;stroke:#ff0000;stroke-width:0.26458332px;stroke-linecap:butt;stroke-linejoin:miter;stroke-opacity:1"
       d="m 491.05272,178.75804 a 1.9338542,1.9338542 0 0 0 -1.9339,-1.93389 1.9338542,1.9338542 0 0 0 -1.9338,1.93389 1.9338542,1.9338542 0 0 0 1.9338,1.9339 1.9338542,1.9338542 0 0 0 1.9339,-1.9339 z"
       id="path883"
       inkscape:connector-curvature="0" />
    <path
       style="fill:#e6e6e6;fill-rule:evenodd;stroke:#333333;stroke-width:0.26458332px;stroke-linecap:butt;stroke-linejoin:miter;stroke-opacity:1"
       d="m 206.51425,174.79814 -1.6463,-9.33661 v -1.46849 c 0,-6.66671 3.3333,-10.00001 10,-10.00001 h 18.5455 c 2.6364,0 4.9162,0.90151 6.8394,2.7046 4.7434,4.4469 9.4868,8.89391 14.2302,13.34082 1.9233,1.80308 4.2031,2.70459 6.8394,2.70459 h 188.2642 c 5.594,0 8.8767,2.7545 9.8481,8.2635 l 1.9372,10.9865 h -20.6099 v -3 h -5 v 3 h -5 v -3 h -5 v 3 h -161.7903 v -3 h -5 v 3 h -5 v -3 h -5 v 3 h -23.0826 c -2.6364,0 -4.9162,-0.90151 -6.8395,-2.70459 -3.1755,-2.97712 -6.3511,-5.95432 -9.5267,-8.93141 -1.6202,-1.51889 -2.6231,-3.3718 -3.0087,-5.5589 z"
       id="path877"
       inkscape:connector-curvature="0" />
    <path
       style="fill:#ffffff;fill-rule:evenodd;stroke:#ff0000;stroke-width:0.26458332px;stroke-linecap:butt;stroke-linejoin:miter;stroke-opacity:1"
       d="m 225.43395,163.49303 a 1.9338542,1.9338542 0 0 0 1.9339,1.93392 1.9338542,1.9338542 0 0 0 1.9338,-1.93392 1.9338542,1.9338542 0 0 0 -1.9338,-1.9339 1.9338542,1.9338542 0 0 0 -1.9339,1.9339 z"
       id="path879"
       inkscape:connector-curvature="0" />
    <path
       style="fill:#e6e6e6;fill-rule:evenodd;stroke:#333333;stroke-width:0.26458332px;stroke-linecap:butt;stroke-linejoin:miter;stroke-opacity:1"
       d="m 270.26514,289.77472 v -5 H 157.76512 45.265135 v 5 h 3.00001 v 5 h -3.00001 v 5 h 3.00001 v 5 H 157.76512 267.26514 v -5 h 3 v -5 h -3 v -5 z"
       id="path861"
       inkscape:connector-curvature="0" />
    <path
       style="fill:#e6e6e6;fill-rule:evenodd;stroke:#333333;stroke-width:0.26458332px;stroke-linecap:butt;stroke-linejoin:miter;stroke-opacity:1"
       d="m 45.265135,274.96385 v 5 H 157.76512 270.26514 v -5 h -3 v -5 h 3 v -5 h -3 v -5 H 157.76512 48.265145 v 5 h -3.00001 v 5 h 3.00001 v 5 z"
       id="path859"
       inkscape:connector-curvature="0" />
    <path
       style="fill:#e6e6e6;fill-rule:evenodd;stroke:#333333;stroke-width:0.26458332px;stroke-linecap:butt;stroke-linejoin:miter;stroke-opacity:1"
       d="m 272.27611,-160.0391 h -9.702 v -3.1047 H 251.1431 v 2.7519 h -1.37599 -1.37589 v -2.7519 h -11.431 v 3.1047 h -9.70211 v 73.454308 h -3.10478 v 75.182997 h 2.75188 v 1.37602 1.37588 h -2.75188 v 75.1831 h 3.10478 v 73.454105 h 9.70211 v 3.1048 h 11.431 v -2.75189 h 1.37589 1.37599 v 2.75189 h 11.43101 v -3.1048 h 9.702 V 66.533205 h 3.10471 v -75.1831 h -2.75191 v -1.37588 -1.37602 h 2.75191 v -75.182997 h -3.10471 z"
       id="path885"
       inkscape:connector-curvature="0" />
    <path
       style="fill:#ffffff;fill-rule:evenodd;stroke:#ff0000;stroke-width:0.26458332px;stroke-linecap:butt;stroke-linejoin:miter;stroke-opacity:1"
       d="m 249.80233,-146.38559 a 2.0109959,2.0109959 0 0 1 -2.01102,-2.01089 2.0109959,2.0109959 0 0 1 2.01102,-2.0111 2.0109959,2.0109959 0 0 1 2.0111,2.0111 2.0109959,2.0109959 0 0 1 -2.0111,2.01089 z"
       id="path889"
       inkscape:connector-curvature="0" />
    <path
       style="fill:#ffffff;fill-rule:evenodd;stroke:#ff0000;stroke-width:0.26458332px;stroke-linecap:butt;stroke-linejoin:miter;stroke-opacity:1"
       d="m 249.80233,130.35571 a 2.0109959,2.0109959 0 0 1 -2.01102,-2.01088 2.0109959,2.0109959 0 0 1 2.01102,-2.01102 2.0109959,2.0109959 0 0 1 2.0111,2.01102 2.0109959,2.0109959 0 0 1 -2.0111,2.01088 z"
       id="path887"
       inkscape:connector-curvature="0" />
    <path
       style="fill:#e6e6e6;fill-rule:evenodd;stroke:#333333;stroke-width:0.26458332px;stroke-linecap:butt;stroke-linejoin:miter;stroke-opacity:1"
       d="M 7.9179104,-86.584724 H 4.8131838 v -73.454426 h -9.7022443 v -3.10472 H -16.319881 v 2.75228 h -1.37615 -1.375622 v -2.75228 h -11.431349 v 3.10472 h -9.701742 v 73.454426 h -3.1047 v 75.182491 h 2.751773 v 1.376143 1.376143 h -2.751773 V 66.53306 h 3.1047 v 73.45392 h 9.701742 v 3.10472 h 11.431349 v -2.75177 h 1.375622 1.37615 v 2.75177 h 11.4308205 v -3.10472 H 4.8131838 V 66.53306 H 7.9179104 V -8.649947 H 5.1661379 v -1.376143 -1.376143 h 2.7517725 z"
       id="path2044"
       inkscape:connector-curvature="0" />
    <path
       style="fill:#ffffff;fill-rule:evenodd;stroke:#ff0000;stroke-width:0.26458332px;stroke-linecap:butt;stroke-linejoin:miter;stroke-opacity:1"
       d="m -15.160794,-148.55975 c 0.146341,3.33161 -4.751811,3.66147 -5.066347,0.36897 -0.425292,-3.2813 5.009568,-3.6795 5.066347,-0.36897 z"
       id="path2042"
       inkscape:connector-curvature="0" />
    <path
       style="fill:#ffffff;fill-rule:evenodd;stroke:#ff0000;stroke-width:0.26458332px;stroke-linecap:butt;stroke-linejoin:miter;stroke-opacity:1"
       d="m -15.160794,128.18045 c 0.147267,3.33378 -4.751625,3.66173 -5.066347,0.36899 -0.424154,-3.28099 5.00835,-3.6785 5.066347,-0.36899 z"
       id="path957"
       inkscape:connector-curvature="0" />
    <path
       style="fill:#ffffff;fill-rule:evenodd;stroke:#ff0000;stroke-width:0.26458332px;stroke-linecap:butt;stroke-linejoin:miter;stroke-opacity:1"
       d="m -27.186495,-45.024385 v 13.01858 h -2.99879 v -13.01858 z"
       id="path965"
       inkscape:connector-curvature="0" />
    <path
       style="fill:#ffffff;fill-rule:evenodd;stroke:#ff0000;stroke-width:0.26458332px;stroke-linecap:butt;stroke-linejoin:miter;stroke-opacity:1"
       d="m -25.210695,-81.045792 v 11.00752 h -6.98558 v -11.00752 z"
       id="path963"
       inkscape:connector-curvature="0" />
    <path
       style="fill:#ffffff;fill-rule:evenodd;stroke:#ff0000;stroke-width:0.26458332px;stroke-linecap:butt;stroke-linejoin:miter;stroke-opacity:1"
       d="m 120.04021,-14.047685 v 8.0086 h -8.00881 v -8.0086 z"
       id="path993"
       inkscape:connector-curvature="0" />
    <path
       style="fill:#ffffff;fill-rule:evenodd;stroke:#ff0000;stroke-width:0.26458332px;stroke-linecap:butt;stroke-linejoin:miter;stroke-opacity:1"
       d="m 116.01824,105.05961 a 39.02038,39.02038 0 0 1 -39.020415,-39.020295 39.02038,39.02038 0 0 1 39.020405,-39.0203 39.02038,39.02038 0 0 1 39.0203,39.0203 39.02038,39.02038 0 0 1 -39.02029,39.020295 z"
       id="path991"
       inkscape:connector-curvature="0" />
    <path
       style="fill:#ffffff;fill-rule:evenodd;stroke:#ff0000;stroke-width:0.26458332px;stroke-linecap:butt;stroke-linejoin:miter;stroke-opacity:1"
       d="m 152.03971,23.455605 v -66.99801 c 0,-2.22268 1.79941,-3.98669 4.00442,-3.98669 2.20509,0 3.96909,1.79941 3.96909,3.98669 v 66.99801 c 0,2.2225 -1.7994,3.98679 -4.00441,4.00431 -2.20509,0.0169 -3.9691,-1.78181 -3.9691,-4.00431 z"
       id="path989"
       inkscape:connector-curvature="0" />
    <path
       style="fill:#ffffff;fill-rule:evenodd;stroke:#ff0000;stroke-width:0.26458332px;stroke-linecap:butt;stroke-linejoin:miter;stroke-opacity:1"
       d="m 72.023315,23.455605 v -66.99801 c 0,-2.22268 1.7993,-3.98669 4.00431,-3.98669 2.20509,0 3.96909,1.79941 3.96909,3.98669 v 66.99801 c 0,2.2225 -1.7994,3.98679 -3.98679,4.00431 -2.18731,0.0169 -3.98661,-1.78181 -3.98661,-4.00431 z"
       id="path987"
       inkscape:connector-curvature="0" />
    <path
       style="fill:#e6e6e6;fill-rule:evenodd;stroke:#333333;stroke-width:0.26458332px;stroke-linecap:butt;stroke-linejoin:miter;stroke-opacity:1"
       d="m 197.9257,150.59699 h -54.0499 v -3.1047 H 91.201814 v 2.75191 h -1.37599 -1.37592 v -2.75191 h -52.67399 v 3.1047 h -54.05001 v 9.7022 h 3.1047 v 11.4309 h 8.64381 v -1.23468 h 2.258 v 1.23468 h 2.25799 v 2.7519 h -2.25799 v 1.23481 h -2.258 v -1.23481 h -8.64381 V 185.913 h -3.1047 v 9.70211 h 54.05001 v 3.1047 h 52.67399 v -2.75191 h 1.37592 1.37599 v 2.75191 H 143.8758 v -3.1047 h 54.0499 V 185.913 h -3.1048 v -11.43101 h -8.6437 v 1.23481 h -2.25798 v -1.23481 h -2.25791 v -2.7519 h 2.2932 v -1.23468 h 2.25798 v 1.23468 h 8.64381 v -11.4309 h 3.10462 v -9.7022 z"
       id="path923"
       inkscape:connector-curvature="0" />
    <path
       style="fill:#ffffff;fill-rule:evenodd;stroke:#ff0000;stroke-width:0.26458332px;stroke-linecap:butt;stroke-linejoin:miter;stroke-opacity:1"
       d="m 147.22741,178.57449 a 5.5037784,5.5037784 0 0 1 -5.50392,-5.50368 5.5037784,5.5037784 0 0 1 5.50392,-5.50392 5.5037784,5.5037784 0 0 1 5.5037,5.50392 5.5037784,5.5037784 0 0 1 -5.5037,5.50368 z"
       id="path955"
       inkscape:connector-curvature="0" />
    <path
       style="fill:#ffffff;fill-rule:evenodd;stroke:#ff0000;stroke-width:0.26458332px;stroke-linecap:butt;stroke-linejoin:miter;stroke-opacity:1"
       d="M 111.34689,163.08631 V 183.0905 H 110.3592 V 163.08631 Z"
       id="path953"
       inkscape:connector-curvature="0" />
    <path
       style="fill:#ffffff;fill-rule:evenodd;stroke:#ff0000;stroke-width:0.26458332px;stroke-linecap:butt;stroke-linejoin:miter;stroke-opacity:1"
       d="m 108.3481,163.08631 v 20.00419 h -0.98779 v -20.00419 z"
       id="path951"
       inkscape:connector-curvature="0" />
    <path
       style="fill:#ffffff;fill-rule:evenodd;stroke:#ff0000;stroke-width:0.26458332px;stroke-linecap:butt;stroke-linejoin:miter;stroke-opacity:1"
       d="m 105.34921,163.08631 v 20.00419 h -0.98772 v -20.00419 z"
       id="path949"
       inkscape:connector-curvature="0" />
    <path
       style="fill:#ffffff;fill-rule:evenodd;stroke:#ff0000;stroke-width:0.26458332px;stroke-linecap:butt;stroke-linejoin:miter;stroke-opacity:1"
       d="M 102.35029,163.08631 V 183.0905 H 101.3626 V 163.08631 Z"
       id="path947"
       inkscape:connector-curvature="0" />
    <path
       style="fill:#ffffff;fill-rule:evenodd;stroke:#ff0000;stroke-width:0.26458332px;stroke-linecap:butt;stroke-linejoin:miter;stroke-opacity:1"
       d="m 99.316314,163.08631 v 20.00419 h -0.9879 v -20.00419 z"
       id="path945"
       inkscape:connector-curvature="0" />
    <path
       style="fill:#ffffff;fill-rule:evenodd;stroke:#ff0000;stroke-width:0.26458332px;stroke-linecap:butt;stroke-linejoin:miter;stroke-opacity:1"
       d="m 96.317504,163.08631 v 20.00419 h -0.98801 v -20.00419 z"
       id="path943"
       inkscape:connector-curvature="0" />
    <path
       style="fill:#ffffff;fill-rule:evenodd;stroke:#ff0000;stroke-width:0.26458332px;stroke-linecap:butt;stroke-linejoin:miter;stroke-opacity:1"
       d="m 93.318614,163.08631 v 20.00419 h -0.9879 v -20.00419 z"
       id="path941"
       inkscape:connector-curvature="0" />
    <path
       style="fill:#ffffff;fill-rule:evenodd;stroke:#ff0000;stroke-width:0.26458332px;stroke-linecap:butt;stroke-linejoin:miter;stroke-opacity:1"
       d="m 69.327704,163.08631 v 20.00419 h -0.9878 v -20.00419 z"
       id="path939"
       inkscape:connector-curvature="0" />
    <path
       style="fill:#ffffff;fill-rule:evenodd;stroke:#ff0000;stroke-width:0.26458332px;stroke-linecap:butt;stroke-linejoin:miter;stroke-opacity:1"
       d="m 72.326594,163.08631 v 20.00419 h -0.98779 v -20.00419 z"
       id="path937"
       inkscape:connector-curvature="0" />
    <path
       style="fill:#ffffff;fill-rule:evenodd;stroke:#ff0000;stroke-width:0.26458332px;stroke-linecap:butt;stroke-linejoin:miter;stroke-opacity:1"
       d="m 75.325304,163.08631 v 20.00419 h -0.98769 v -20.00419 z"
       id="path935"
       inkscape:connector-curvature="0" />
    <path
       style="fill:#ffffff;fill-rule:evenodd;stroke:#ff0000;stroke-width:0.26458332px;stroke-linecap:butt;stroke-linejoin:miter;stroke-opacity:1"
       d="m 78.324194,163.08631 v 20.00419 h -0.98769 v -20.00419 z"
       id="path933"
       inkscape:connector-curvature="0" />
    <path
       style="fill:#ffffff;fill-rule:evenodd;stroke:#ff0000;stroke-width:0.26458332px;stroke-linecap:butt;stroke-linejoin:miter;stroke-opacity:1"
       d="m 81.323194,163.08631 v 20.00419 h -0.9879 v -20.00419 z"
       id="path931"
       inkscape:connector-curvature="0" />
    <path
       style="fill:#ffffff;fill-rule:evenodd;stroke:#ff0000;stroke-width:0.26458332px;stroke-linecap:butt;stroke-linejoin:miter;stroke-opacity:1"
       d="m 84.322014,163.08631 v 20.00419 h -0.9878 v -20.00419 z"
       id="path929"
       inkscape:connector-curvature="0" />
    <path
       style="fill:#ffffff;fill-rule:evenodd;stroke:#ff0000;stroke-width:0.26458332px;stroke-linecap:butt;stroke-linejoin:miter;stroke-opacity:1"
       d="m 87.320904,163.08631 v 20.00419 h -0.98801 v -20.00419 z"
       id="path927"
       inkscape:connector-curvature="0" />
    <path
       style="fill:#ffffff;fill-rule:evenodd;stroke:#ff0000;stroke-width:0.26458332px;stroke-linecap:butt;stroke-linejoin:miter;stroke-opacity:1"
       d="m 90.319714,163.08631 v 20.00419 h -0.9879 v -20.00419 z"
       id="path925"
       inkscape:connector-curvature="0" />
    <path
       style="fill:#ffffff;fill-rule:evenodd;stroke:#ff0000;stroke-width:0.26458332px;stroke-linecap:butt;stroke-linejoin:miter;stroke-opacity:1"
       d="m 143.8758,149.49098 v 3.1047 z"
       id="path967"
       inkscape:connector-curvature="0" />
    <path
       inkscape:connector-curvature="0"
       id="path994"
       d="m 10.230974,295.71433 c -1.5188902,1.6201 -3.3718002,2.623 -5.5588902,3.00868 l -9.33661,1.64632 h -1.4685 c -6.6666898,0 -9.9999898,-3.33341 -9.9999898,-10.00001 v -18.54559 c 0,-2.63631 0.90149,-4.9161 2.7046,-6.8394 l 2.6172,-2.7917 c 2.1186898,-2.25991 5.7614898,-2.0692 7.6325898,0.3997 l 17.3273102,22.8632 c 1.4717,1.94199 1.32929,4.6621 -0.33731,6.4397 z"
       style="fill:#e6e6e6;fill-rule:evenodd;stroke:#333333;stroke-width:0.26458332px;stroke-linecap:butt;stroke-linejoin:miter;stroke-opacity:1" />
    <path
       inkscape:connector-curvature="0"
       id="path996"
       d="m -6.6329162,275.93532 a 1.9338542,1.9338542 0 0 0 -1.9338,1.93379 1.9338542,1.9338542 0 0 0 1.9338,1.93392 1.9338542,1.9338542 0 0 0 1.93389,-1.93392 1.9338542,1.9338542 0 0 0 -1.93389,-1.93379 z"
       style="fill:#ffffff;fill-rule:evenodd;stroke:#ff0000;stroke-width:0.26458332px;stroke-linecap:butt;stroke-linejoin:miter;stroke-opacity:1" />
  </g>
</svg>
